# xmcd CD database file
#
# Track frame offsets:
#	150
#	32627
#	46750
#	83757
#	105737
#	126002
#	139072
#	180347
#
# Disc length: 2622 seconds
#
# Revision: 0
# Processed by: cddbd v1.5.2PL0 Copyright (c) Steve Scherf et al.
# Submitted via: CDex 1.70beta2
#
DISCID=5b0a3c08
DTITLE=Stanley Cowell - Travellin' Man
DYEAR=1900
DGENRE=Jazz
TTITLE0=Departure
TTITLE1=Sweet Song
TTITLE2=The Shuttle
TTITLE3=You Took Advantage Of Me
TTITLE4=Blues For The Viet Cong
TTITLE5=Wedding March
TTITLE6=Photon In A Paper World
TTITLE7=Travellin' Man
EXTD=
EXTT0=
EXTT1=
EXTT2=
EXTT3=
EXTT4=
EXTT5=
EXTT6=
EXTT7=
PLAYORDER=
